Coordinates
version=1
nRows=13
nColumns=36
inDegrees=yes

Units are S.I. units (second, meters, Newtons, ...)
If the header above contains a line with 'inDegrees', this indicates whether rotational values are in degrees (yes) or radians (no).

endheader
time	pelvis_tilt	pelvis_list	pelvis_rotation	pelvis_tx	pelvis_ty	pelvis_tz	hip_flexion_r	hip_adduction_r	hip_rotation_r	knee_angle_r	knee_angle_r_beta	ankle_angle_r	subtalar_angle_r	mtp_angle_r	hip_flexion_l	hip_adduction_l	hip_rotation_l	knee_angle_l	knee_angle_l_beta	ankle_angle_l	subtalar_angle_l	mtp_angle_l	lumbar_extension	lumbar_bending	lumbar_rotation	arm_flex_r	arm_add_r	arm_rot_r	elbow_flex_r	pro_sup_r	arm_flex_l	arm_add_l	arm_rot_l	elbow_flex_l	pro_sup_l
      4.97500000	    -11.82601952	      0.75013451	      2.08584864	      0.31451091	      1.14145556	     -0.05530339	     15.07749516	     -5.38430612	      1.16170457	      8.03578990	      0.14025099	    -18.66123394	    -11.45631520	     -7.49999987	     19.36196182	     -6.85260754	      3.50482304	     24.33726761	      0.42476545	    -11.43335735	      2.36869794	     -7.49999987	    -10.52507866	     -1.39439881	     -0.44705266	     -9.99816022	     -8.32966175	    -20.94666984	     36.50678413	     64.04374681	    -12.34093056	     -6.79363009	    -87.91112596	     83.04596094	     90.71626661
      4.97916670	    -11.76251223	      0.67476398	      2.09282230	      0.31413677	      1.13711553	     -0.05560844	     15.43684520	     -5.34606780	      1.43855158	      8.61649778	      0.15038626	    -18.15527839	    -11.48837694	     -7.49999987	     19.83318282	     -6.95938131	      3.80444932	     25.12769536	      0.43856102	    -10.71215147	      2.33247941	     -7.49999987	    -10.67173042	     -2.15899849	      0.18569374	    -11.87828643	     -6.37815301	    -31.88513451	     46.10712776	     65.75974287	    -10.78361452	    -10.08688225	    -79.40438089	     87.42176641	     81.76624417
      4.98333330	    -11.86537181	      0.51885746	      2.07479967	      0.31289946	      1.13579765	     -0.05474741	     16.02261288	     -5.19213120	      1.74273851	      9.19187903	      0.16042855	    -17.69262188	    -11.46200960	     -7.49999987	     20.53895520	     -7.18952134	      4.17161082	     25.86943224	      0.45150677	    -10.12803752	      2.18153561	     -7.49999987	    -10.44399989	     -2.30159339	     -0.09576949	    -13.07964945	     -3.44144518	    -44.36606607	     60.53523792	     75.42164973	    -11.05590686	     -9.78936379	    -78.15534336	     92.15309102	     68.33329470
      4.98750000	    -11.61137114	      0.36869318	      2.04906906	      0.31225365	      1.13590010	     -0.05550627	     16.06707979	     -5.09323662	      1.68529752	      9.46864132	      0.16525897	    -17.15798094	    -10.97314555	     -7.49999987	     20.87757644	     -7.38275712	      4.48909567	     26.63493134	      0.46486725	     -9.53102803	      2.10805220	     -7.49999987	    -10.59507369	     -1.81709973	     -0.29940905	    -13.15427282	     -0.73664653	    -54.56577575	     78.57233129	     73.78009664	    -11.39122415	     -7.91680661	    -80.97710960	     97.96243248	     65.62556786
      4.99166670	    -11.44303813	      0.10768756	      2.03777167	      0.31056929	      1.13321532	     -0.05372793	     16.28246097	     -4.76536661	      1.66585925	      9.72887810	      0.16980096	    -16.87964174	    -10.84963008	     -7.49999987	     21.33431256	     -7.78027238	      4.66975741	     27.36796215	      0.47766105	     -8.94204575	      1.88816673	     -7.49999987	    -10.77705418	     -1.27057685	     -0.97500291	    -11.64847912	      0.98075762	    -61.34657148	     95.05757345	     72.56210716	    -12.32225811	     -6.22355002	    -82.84456697	     99.42523864	     64.13953648
      4.99583330	    -11.29606895	     -0.00879572	      2.01469688	      0.31140508	      1.13738747	     -0.05552893	     16.15279250	     -4.69527220	      1.43184497	      9.45594987	      0.16503746	    -16.47656323	     -9.66119661	     -7.49999987	     21.42826212	     -7.91506941	      4.87601887	     27.46596373	      0.47937150	     -8.84771751	      1.56683048	     -7.49999987	    -10.89526173	     -0.18916157	      0.71110156	    -10.22400772	      1.86755526	    -67.45593798	    105.57157273	     66.65102565	    -14.70103975	     -2.38923087	    -75.11560831	     77.46530174	     63.04731751
      5.00000000	    -11.00108218	     -0.05945771	      2.00428343	      0.31045184	      1.13417631	     -0.05330509	     15.95438256	     -4.57778016	      1.29739793	      9.27147960	      0.16181785	    -16.21051849	     -9.03923885	     -7.49999987	     21.33276661	     -8.06294843	      4.92474677	     27.47814029	      0.47958402	     -8.64994960	      1.48717445	     -7.49999987	    -11.49662986	     -0.47536155	      0.65848941	     -8.76695468	      0.61348234	    -68.61413226	    110.63168389	     53.99999096	    -14.09488800	     -4.73684134	    -63.21501007	     47.84288917	     64.84556524
      5.00416670	    -10.53525109	     -0.04349322	      2.04976306	      0.31042795	      1.12815206	     -0.05539925	     15.65580260	     -4.61460619	      1.32965905	      9.29913963	      0.16230060	    -16.05726035	     -8.74694617	     -7.49999987	     21.17739998	     -8.08538520	      4.90698997	     27.75665524	      0.48444502	     -8.31384655	      1.16714205	     -7.49999987	    -12.33020153	     -1.38345519	      1.12791034	     -7.84071665	      0.31950826	    -71.36371445	    114.00921630	     52.40030080	    -11.95585589	     -7.06672426	    -49.88917242	     29.47024983	     66.65546652
      5.00833330	    -11.72624797	     -0.19447949	      2.06014217	      0.31196827	      1.12553541	     -0.05597350	     16.88203205	     -4.63442597	      1.08353924	      8.94085879	      0.15604742	    -15.95814555	     -7.65017657	     -7.49999987	     22.54424951	     -8.12530896	      5.10894686	     27.69083789	      0.48329629	     -8.30255728	      0.49063347	     -7.49999987	    -11.23465914	      0.61911347	      0.54526449	     -6.56650265	     -1.86473655	    -69.30552889	    111.69000082	     56.54834861	    -14.44020448	     -5.85611891	    -61.70515534	     48.46516016	     57.59911782
      5.01250000	    -11.51886579	     -0.24319352	      2.09459407	      0.30995224	      1.12468169	     -0.05487915	     16.84785691	     -4.61243785	      1.02343825	      8.80521194	      0.15367994	    -16.11449576	     -7.47523338	     -7.49999987	     22.70156995	     -8.23737445	      4.92573356	     27.90464207	      0.48702788	     -8.09465434	      0.06631305	     -7.49999987	    -11.66734695	      0.21467565	      0.92948620	     -6.10817958	     -1.77739564	    -67.59292190	    110.36617424	     55.57630792	    -13.41608974	     -7.44853849	    -50.31192752	     35.04564117	     58.40984344
      5.01666670	    -11.10613686	     -0.13650064	      2.06438463	      0.30871073	      1.12453537	     -0.05380130	     16.56991932	     -4.64778274	      1.00413818	      8.54939937	      0.14921517	    -16.21048107	     -7.02324402	     -7.49999987	     22.48841748	     -8.23770496	      4.91732101	     27.86614668	      0.48635601	     -7.92939611	     -0.31992391	     -7.49999987	    -12.50327308	     -1.02933443	      1.57448336	     -5.36065932	     -2.38393094	    -67.58504827	    107.27955350	     51.13206899	    -11.31243367	     -9.98986166	    -36.98857463	     25.73673712	     57.00433218
      5.02083330	    -10.92121745	     -0.15218225	      2.12598493	      0.30935183	      1.11751192	     -0.05412854	     16.52103341	     -4.63836755	      1.07775797	      8.42041933	      0.14696404	    -16.29618683	     -6.70143738	     -7.49999987	     22.61392768	     -8.31152558	      4.96883649	     27.89747584	      0.48690281	     -7.70156165	     -0.74234394	     -7.49999987	    -12.62617853	     -1.40551005	      1.65714350	     -5.56861895	     -1.42493658	    -69.18242705	    110.69253043	     50.64647170	    -10.42941678	    -10.40307834	    -28.14019585	     21.13816335	     58.13651124
      5.02500000	    -10.71716941	     -0.12359797	      2.05491729	      0.30824127	      1.11585981	     -0.05440967	     16.50190685	     -4.70582757	      0.87016025	      8.32097875	      0.14522848	    -16.35472739	     -6.33162354	     -7.49999987	     22.68160300	     -8.32615909	      4.84199564	     27.94908428	      0.48780354	     -7.55565059	     -1.06257923	     -7.49999987	    -12.97388855	     -1.82332481	      1.29512165	     -5.55063333	     -0.11451460	    -71.99026635	    117.62352447	     48.93097925	    -10.35200676	    -11.08534582	    -20.16309263	     19.13846996	     56.55081374
